<svg width="32" height="32" viewBox="0 0 32 32" fill="none" xmlns="http://www.w3.org/2000/svg">
<rect width="32" height="32" rx="4" fill="#6415FF"/>
<path d="M16 23.4667C14.5232 23.4667 13.0796 23.0288 11.8517 22.2084C10.6238 21.3879 9.66682 20.2218 9.10169 18.8574C8.53655 17.4931 8.38869 15.9918 8.67679 14.5434C8.96489 13.095 9.67603 11.7646 10.7203 10.7203C11.7645 9.67609 13.0949 8.96496 14.5433 8.67685C15.9917 8.38875 17.493 8.53661 18.8574 9.10175C20.2217 9.66688 21.3878 10.6239 22.2083 11.8518C23.0287 13.0797 23.4667 14.5233 23.4667 16C23.4667 17.9803 22.68 19.8795 21.2797 21.2798C19.8794 22.6801 17.9803 23.4667 16 23.4667V23.4667ZM16 10.4C14.8924 10.4 13.8097 10.7285 12.8888 11.3438C11.9679 11.9592 11.2501 12.8338 10.8263 13.857C10.4024 14.8803 10.2915 16.0063 10.5076 17.0926C10.7237 18.1788 11.257 19.1767 12.0402 19.9598C12.8234 20.743 13.8212 21.2764 14.9075 21.4924C15.9938 21.7085 17.1197 21.5976 18.143 21.1738C19.1663 20.7499 20.0409 20.0322 20.6562 19.1112C21.2716 18.1903 21.6 17.1076 21.6 16C21.6 14.5148 21.01 13.0905 19.9598 12.0403C18.9096 10.99 17.4852 10.4 16 10.4ZM16.9333 4.80005H15.0667V7.60005H16.9333V4.80005ZM16.9333 24.4H15.0667V27.2H16.9333V24.4ZM27.2 15.0667H24.4V16.9334H27.2V15.0667ZM7.59999 15.0667H4.79999V16.9334H7.59999V15.0667ZM24.5773 23.2614L22.5987 21.2827L21.2827 22.5987L23.2613 24.5774L24.5773 23.2614ZM10.7173 9.40138L8.73865 7.42272L7.42265 8.73872L9.40132 10.7174L10.7173 9.40138ZM10.7173 22.5987L9.40132 21.2827L7.42265 23.2614L8.73865 24.5774L10.7173 22.5987ZM24.5773 8.73872L23.2613 7.42272L21.2827 9.40138L22.5987 10.7174L24.5773 8.73872Z" fill="white"/>
</svg>
